<svg viewBox="0 0 32 38"
  xmlns="http://www.w3.org/2000/svg">
  <path d="M4.389 25.803l3.866 2.232-1.83-6.189-2.036 3.957z"/>
  <path d="M13.324 19.249L1.401 12.204a1.301 1.301 0 00-.661-.207c-.468 0-.74.389-.74 1.037v14.077c0 1.168.61 2.232 1.648 2.828l11.923 7.045c.233.143.467.208.661.208a.61.61 0 00.52-.247c.142-.181.22-.454.22-.791V22.142c0-1.297-.856-2.413-1.648-2.893zm-2.692 11.275a.344.344 0 01-.286.143.397.397 0 01-.26-.09l-7.239-4.204c-.194-.13-.26-.364-.168-.545l3.73-7.137c.052-.143.195-.233.39-.233.168 0 .298.103.363.285l3.483 11.288c.09.26.051.416-.013.493zm20.513-18.387c-.192 0-.423.078-.641.207l-11.79 7.009c-.783.465-1.63 1.562-1.63 2.891V36.16c0 .632.282 1.032.744 1.032.192 0 .41-.077.642-.206l11.79-7.01c1.013-.606 1.63-1.652 1.63-2.813V13.144c-.014-.633-.296-1.007-.745-1.007zm-4.17 6.803a1.27 1.27 0 01-.474.465.803.803 0 01-.565.09v.052c0 .103 0 .232.026.438l.026.31c.14 1.278.205 2.479.205 3.602 0 .18-.013.503-.039 1.213-.012.413-.025.942-.05 1.64-.026 1.2-.206 2.052-.514 2.62-.231.452-.526.749-.86.89a.965.965 0 01-.5.13c-.141 0-.256-.052-.308-.065-.128-.052-.398-.22-.398-.736a1.3 1.3 0 01.167-.632c.141-.233.308-.387.513-.49a.781.781 0 01.565-.065c0-.13 0-.284-.026-.49v-.13c-.154-1.084-.205-2.156-.205-4.053l.026-.71c.025-.684.038-1.213.038-1.652.026-.607.026-.93.026-1.033v-.026c.09-.723.23-1.33.423-1.742l.013-.013c.257-.413.5-.684.821-.852.346-.181.616-.194.834-.052.257.142.398.349.41.62.052.193 0 .451-.153.67zm-9.55-9.902l-.012-.013c-.238-.156-.595-.272-1.047-.324-.06 0-.12-.013-.167-.013a.534.534 0 00-.143-.013c-.416 0-.857.065-1.405.194-.726.195-1.273.429-1.714.714-.333.208-.417.363-.417.39v.025c-.011.104.107.182.179.195l.024.013c.38.22.94.324 1.714.324.965 0 2.036-.22 3.274-.675.107-.168.143-.298.12-.467a1.245 1.245 0 00-.406-.35z"/>
  <path d="M29.61 9.29c0-.308-.21-.603-.582-.83L17.392 1.15c-.408-.255-.953-.402-1.535-.402s-1.126.147-1.535.402L2.86 8.42c-.371.227-.582.535-.582.856 0 .322.21.63.582.844l11.636 7.31c.409.254.954.401 1.535.401.582 0 1.127-.147 1.535-.402l11.463-7.27c.384-.24.582-.548.582-.87zm-8.133-.308c-.247.441-.693.856-1.374 1.285-1.225.776-2.6 1.299-4.196 1.606a9.14 9.14 0 01-1.709.188c-.953 0-1.782-.214-2.463-.63-.879-.548-1.015-1.15-1.015-1.445 0-.576.322-1.058.978-1.473.31-.228.755-.415 1.386-.602a5.8 5.8 0 011.548-.282c.16-.013.31-.013.47-.013.359 0 .668.027.891.04.409.054.805.12 1.14.255.37.133.668.254.903.415.359.227.606.455.755.736.099.174.16.361.198.549.025-.014.062-.027.087-.054.086-.053.173-.107.247-.147.495-.321.743-.616.743-.857V8.54c.025-.228-.173-.482-.619-.79-.334-.214-.656-.335-.94-.362h-.013c-.285-.053-.669-.066-1.151-.026h-.05a.928.928 0 01-.359-.067.495.495 0 01-.322-.469.51.51 0 01.372-.468 7.173 7.173 0 011.77-.228c.124 0 .247 0 .371.013a3.42 3.42 0 011.647.51c.383.227.668.548.829.936.16.469.111.924-.124 1.393z"/>
</svg>
